<svg width="46" height="54" viewBox="0 0 46 54" fill="none" xmlns="http://www.w3.org/2000/svg" xmlns:xlink="http://www.w3.org/1999/xlink">
<path d="M40.569,13.719C40.519,14.04 40.462,14.367 40.397,14.704C38.184,26.068 30.611,29.994 20.939,29.994L16.014,29.994C14.831,29.994 13.835,30.853 13.65,32.02L11.129,48.01L10.415,52.543C10.295,53.309 10.886,54 11.659,54L20.393,54C21.427,54 22.306,53.248 22.469,52.228L22.555,51.784L24.199,41.348L24.305,40.776C24.466,39.752 25.346,39.001 26.381,39.001L27.687,39.001C36.149,39.001 42.774,35.565 44.71,25.623C45.519,21.47 45.1,18.002 42.96,15.563C42.312,14.827 41.508,14.217 40.569,13.719Z" fill="#D9D9D9"/>
<path d="M38.253,12.796C37.915,12.698 37.566,12.609 37.208,12.528C36.849,12.449 36.48,12.38 36.101,12.319C34.773,12.104 33.318,12.002 31.76,12.002L18.604,12.002C18.28,12.002 17.972,12.075 17.696,12.208C17.09,12.499 16.639,13.074 16.53,13.777L13.731,31.503L13.65,32.02C13.835,30.854 14.831,29.995 16.014,29.995L20.939,29.995C30.611,29.995 38.184,26.067 40.397,14.704C40.463,14.368 40.519,14.04 40.569,13.72C40.009,13.423 39.402,13.169 38.749,12.952C38.588,12.898 38.422,12.847 38.253,12.796Z" fill="#D9D9D9"/>
<path d="M16.53,13.777C16.639,13.074 17.09,12.499 17.696,12.209C17.974,12.077 18.28,12.004 18.604,12.004L31.76,12.004C33.318,12.004 34.773,12.106 36.101,12.32C36.48,12.381 36.849,12.451 37.208,12.53C37.566,12.61 37.915,12.7 38.254,12.798C38.422,12.848 38.588,12.9 38.751,12.952C39.404,13.169 40.011,13.424 40.571,13.72C41.229,9.52 40.565,6.66 38.295,4.071C35.791,1.22 31.273,0 25.491,0L8.706,0C7.525,0 6.518,0.859 6.335,2.027L-0.656,46.343C-0.794,47.22 -0.118,48.011 0.766,48.011L11.129,48.011L13.731,31.503L16.53,13.777Z" fill="#D9D9D9"/>
</svg>
