<svg width="54" height="54" viewBox="0 0 54 54" fill="none" xmlns="http://www.w3.org/2000/svg" xmlns:xlink="http://www.w3.org/1999/xlink">
<path d="M27,4.865C34.209,4.865 35.063,4.892 37.91,5.022C40.543,5.142 41.972,5.582 42.924,5.952C44.184,6.442 45.084,7.027 46.028,7.972C46.973,8.916 47.558,9.816 48.048,11.076C48.418,12.028 48.858,13.457 48.978,16.09C49.108,18.937 49.135,19.791 49.135,27C49.135,34.209 49.108,35.063 48.978,37.91C48.858,40.543 48.418,41.972 48.048,42.924C47.558,44.184 46.973,45.083 46.028,46.028C45.084,46.973 44.184,47.558 42.924,48.048C41.972,48.418 40.543,48.858 37.91,48.978C35.064,49.107 34.21,49.135 27,49.135C19.79,49.135 18.936,49.107 16.09,48.978C13.457,48.858 12.028,48.418 11.076,48.048C9.816,47.558 8.916,46.973 7.972,46.028C7.027,45.083 6.442,44.184 5.952,42.924C5.582,41.972 5.142,40.543 5.022,37.91C4.892,35.063 4.865,34.209 4.865,27C4.865,19.791 4.892,18.937 5.022,16.09C5.142,13.457 5.582,12.028 5.952,11.076C6.442,9.816 7.027,8.916 7.972,7.972C8.916,7.027 9.816,6.442 11.076,5.952C12.028,5.582 13.457,5.142 16.09,5.022C18.937,4.892 19.791,4.865 27,4.865ZM27,0C19.667,0 18.748,0.031 15.868,0.162C12.994,0.294 11.031,0.75 9.314,1.417C7.538,2.107 6.033,3.031 4.532,4.532C3.031,6.033 2.107,7.538 1.418,9.314C0.75,11.031 0.294,12.994 0.162,15.868C0.031,18.748 0,19.667 0,27C0,34.333 0.031,35.252 0.162,38.132C0.294,41.006 0.75,42.968 1.418,44.686C2.107,46.461 3.031,47.967 4.532,49.468C6.033,50.969 7.538,51.892 9.314,52.582C11.031,53.25 12.994,53.706 15.868,53.837C18.748,53.969 19.667,54 27,54C34.333,54 35.252,53.969 38.132,53.837C41.006,53.706 42.969,53.25 44.686,52.582C46.462,51.892 47.967,50.969 49.468,49.468C50.969,47.967 51.893,46.461 52.583,44.686C53.25,42.968 53.706,41.006 53.838,38.132C53.969,35.252 54,34.333 54,27C54,19.667 53.969,18.748 53.838,15.868C53.706,12.994 53.25,11.031 52.583,9.314C51.893,7.538 50.969,6.033 49.468,4.532C47.967,3.031 46.462,2.107 44.686,1.417C42.969,0.75 41.006,0.294 38.132,0.162C35.252,0.031 34.333,0 27,0Z" transform="rotate(0 27 27)" fill="#D9D9D9"/>
<path d="M27.013,13.148C19.355,13.148 13.148,19.355 13.148,27.012C13.148,34.67 19.355,40.877 27.013,40.877C34.67,40.877 40.877,34.67 40.877,27.012C40.877,19.355 34.67,13.148 27.013,13.148ZM27.013,36.013C22.042,36.013 18.012,31.983 18.012,27.012C18.012,22.042 22.042,18.013 27.013,18.013C31.983,18.013 36.012,22.042 36.012,27.012C36.012,31.983 31.983,36.013 27.013,36.013Z" transform="rotate(0 27.012 27.013)" fill="#D9D9D9"/>
<path d="M44.664,12.591C44.664,14.381 43.214,15.831 41.424,15.831C39.635,15.831 38.184,14.381 38.184,12.591C38.184,10.802 39.635,9.351 41.424,9.351C43.214,9.351 44.664,10.802 44.664,12.591Z" transform="rotate(0 41.424 12.591)" fill="#D9D9D9"/>
</svg>
