<svg width="54" height="50" viewBox="0 0 54 50" fill="none" xmlns="http://www.w3.org/2000/svg" xmlns:xlink="http://www.w3.org/1999/xlink">
<path d="M6.221,0.714C3.836,2.13 -0.862,7.527 -0.907,8.943L-0.907,11.286C-0.907,14.256 1.87,16.866 4.39,16.866C7.417,16.866 9.938,14.358 9.939,11.381C9.939,14.358 12.374,16.866 15.401,16.866C18.428,16.866 20.785,14.358 20.785,11.381C20.785,14.358 23.374,16.866 26.401,16.866L26.456,16.866C29.483,16.866 32.072,14.358 32.072,11.381C32.072,14.358 34.429,16.866 37.456,16.866C40.483,16.866 42.918,14.358 42.918,11.381C42.918,14.358 45.44,16.866 48.466,16.866C50.987,16.866 53.763,14.256 53.763,11.286L53.763,8.943C53.719,7.527 49.02,2.129 46.636,0.714C39.224,0.454 34.086,0.409 26.428,0.41C18.77,0.411 8.33,0.53 6.22,0.714L6.221,0.714ZM20.746,15.467C20.457,15.972 20.098,16.433 19.681,16.839C18.539,17.956 16.973,18.648 15.246,18.648C13.585,18.65 11.989,17.999 10.802,16.838C10.388,16.432 10.073,15.999 9.785,15.494L9.784,15.495C9.496,16 9.095,16.434 8.68,16.84C7.493,18 5.896,18.651 4.235,18.649C4.027,18.649 3.811,18.592 3.636,18.531C3.392,21.065 3.29,23.487 3.253,25.252L3.253,25.262C3.248,26.159 3.244,26.896 3.24,27.92C3.286,33.236 2.713,45.151 5.583,48.078C10.032,49.115 18.216,49.587 26.428,49.59L26.429,49.59C34.64,49.587 42.825,49.115 47.273,48.078C50.144,45.15 49.57,33.236 49.617,27.92C49.612,26.896 49.608,26.159 49.604,25.262L49.603,25.252C49.567,23.486 49.464,21.065 49.221,18.531C49.046,18.591 48.83,18.649 48.621,18.649C46.961,18.65 45.364,18 44.177,16.839C43.762,16.433 43.361,16 43.073,15.494L43.071,15.494C42.783,15.998 42.469,16.432 42.055,16.837C40.868,17.999 39.271,18.649 37.61,18.648C35.884,18.648 34.318,17.955 33.175,16.838C32.758,16.433 32.4,15.971 32.11,15.467C31.824,15.97 31.469,16.432 31.055,16.838C29.868,17.999 28.271,18.649 26.61,18.648C26.55,18.648 26.49,18.645 26.43,18.643L26.428,18.643C26.368,18.645 26.308,18.648 26.247,18.648C24.586,18.649 22.989,17.999 21.802,16.838C21.389,16.432 21.033,15.971 20.747,15.467L20.746,15.467ZM16.182,21.37L16.182,21.372L16.185,21.372C17.993,21.375 19.598,21.372 21.588,23.543C23.154,23.379 24.79,23.297 26.428,23.299L26.429,23.299C28.067,23.297 29.703,23.379 31.269,23.543C33.259,21.371 34.864,21.375 36.672,21.372L36.675,21.372L36.675,21.37C37.529,21.37 40.945,21.37 43.325,28.055L45.882,37.227C47.777,44.05 45.276,44.217 42.155,44.223C37.528,44.051 34.966,40.69 34.966,37.33C32.405,37.75 29.417,37.96 26.429,37.96L26.427,37.96C23.439,37.96 20.451,37.75 17.89,37.33C17.89,40.69 15.328,44.051 10.701,44.223C7.581,44.217 5.079,44.05 6.974,37.227L9.532,28.055C11.912,21.37 15.328,21.37 16.182,21.37L16.182,21.37ZM26.428,26.624L26.428,26.625C26.423,26.629 21.556,31.099 20.681,32.689L23.869,32.561L23.869,35.34C23.869,35.47 25.147,35.417 26.428,35.358L26.429,35.358C27.709,35.417 28.988,35.47 28.988,35.34L28.988,32.561L32.175,32.689C31.3,31.099 26.429,26.625 26.429,26.625L26.429,26.624L26.428,26.624L26.428,26.624Z" fill="#D9D9D9"/>
</svg>
