<svg width="54" height="54" viewBox="0 0 54 54" fill="none" xmlns="http://www.w3.org/2000/svg" xmlns:xlink="http://www.w3.org/1999/xlink">
<path d="M-0.237,36.082L26.763,54L53.763,36.082L53.763,17.918L26.763,0L-0.237,17.918L-0.237,36.082M49.763,30.98L49.763,22.973L43.771,26.95M40.179,24.533L48.338,19.118L28.763,6.128L28.763,16.853M26.763,17.918L24.763,17.918L24.763,16.853L13.347,24.533L16.955,26.927L26.763,20.329L25.647,19.578M26.763,20.329L16.955,26.927L26.763,33.436L36.571,26.927M40.164,29.344L36.571,26.927L26.763,33.436L27.869,34.17L28.763,34.977L27.868,34.082L26.763,35.836L27.869,34.17L26.763,34.082L25.658,34.082L26.763,35.836L27.869,34.17L26.763,34.082L25.658,34.082L26.763,35.836L27.869,34.17L26.763,34.082L25.658,34.082L26.763,35.836L27.869,34.17L26.763,34.082L25.658,34.082L26.763,35.836L27.869,34.17L26.763,34.082L25.658,34.082L26.763,35.836L27.869,34.17L26.763,34.082L25.658,34.082L26.763,35.836L27.869,34.17L26.763,34.082L25.658,34.082L26.763,35.836L27.869,34.17L26.763,34.082L25.658,34.082L26.763,35.836L27.869,34.17L26.763,34.082L25.658,34.082L26.763,35.836L27.869,34.17L26.763,34.082L25.658,34.082L26.763,35.836L27.869,34.17L26.763,34.082L25.658,34.082L26.763,35.836L27.869,34.17L26.763,34.082L25.658,34.082L26.763,35.836L27.869,34.17L26.763,34.082L25.658,34.082L26.763,35.836L27.869,34.17L26.763,34.082L25.658,34.082L26.763,35.836L27.869,34.17L26.763,34.082L25.658,34.082L26.763,35.836L27.869,34.17L26.763,34.082L25.658,34.082L26.763,35.836L27.869,34.17L26.763,34.082L25.658,34.082L26.763,35.836L27.869,34.17L26.763,34.082L25.658,34.082L26.763,35.836L27.869,34.17L26.763,34.082L25.658,34.082L26.763,35.836L27.869,34.17L26.763,34.082L25.658,34.082L26.763,35.836L27.869,34.17L26.763,34.082L25.658,34.082L26.763,35.836L27.869,34.17L26.763,34.082L25.658,34.082L26.763,35.836L27.869,34.17L26.763,34.082L25.658,34.082L26.763,35.836L27.869,34.17L26.763,34.082L25.658,34.082M40.164,29.344L28.763,36.91L28.763,47.872L48.367,34.862M24.763,16.853L24.763,6.128L5.188,19.118L13.347,24.533M9.755,26.95L3.763,22.973L3.763,30.98M5.159,34.862L24.763,47.872L24.763,36.91L13.362,29.344M26.763,33.436L27.869,34.17L28.763,34.977L27.868,34.082L26.763,35.836L27.869,34.17L26.763,34.082L25.658,34.082L26.763,35.836L27.869,34.17L26.763,34.082L25.658,34.082L26.763,35.836L27.869,34.17L26.763,34.082L25.658,34.082L26.763,35.836L27.869,34.17L26.763,34.082L25.658,34.082L26.763,35.836L27.869,34.17L26.763,34.082L25.658,34.082L26.763,35.836L27.869,34.17L26.763,34.082L25.658,34.082L26.763,35.836L27.869,34.17L26.763,34.082L25.658,34.082L26.763,35.836L27.869,34.17L26.763,34.082L25.658,34.082L26.763,35.836L27.869,34.17L26.763,34.082L25.658,34.082L26.763,35.836L27.869,34.17L26.763,34.082L25.658,34.082L26.763,35.836L27.869,34.17L26.763,34.082L25.658,34.082L26.763,35.836L27.869,34.17L26.763,34.082L25.658,34.082L26.763,35.836L27.869,34.17L26.763,34.082L25.658,34.082L26.763,35.836L27.869,34.17L26.763,34.082L25.658,34.082L26.763,35.836L27.869,34.17L26.763,34.082L25.658,34.082L26.763,35.836L27.869,34.17L26.763,34.082L25.658,34.082L26.763,35.836L27.869,34.17L26.763,34.082L25.658,34.082L26.763,35.836L27.869,34.17L26.763,34.082L25.658,34.082L26.763,35.836L27.869,34.17L26.763,34.082L25.658,34.082L26.763,35.836L27.869,34.17L26.763,34.082L25.658,34.082L26.763,35.836L27.869,34.17L26.763,34.082L25.658,34.082L26.763,35.836L27.869,34.17L26.763,34.082L25.658,34.082L26.763,35.836L27.869,34.17L26.763,34.082L25.658,34.082L26.763,35.836L27.869,34.17L26.763,34.082L25.658,34.082L26.763,35.836L27.869,34.17M28.763,36.082L28.763,36.91L40.164,29.344L36.571,26.927L26.763,33.436L27.869,34.17L28.763,34.977L27.868,34.082L26.763,35.836L27.869,34.17L26.763,34.082L25.658,34.082L26.763,35.836L27.869,34.17L26.763,34.082L25.658,34.082L26.763,35.836L27.869,34.17L26.763,34.082L25.658,34.082L26.763,35.836L27.869,34.17L26.763,34.082L25.658,34.082L26.763,35.836L27.869,34.17L26.763,34.082L25.658,34.082L26.763,35.836L27.869,34.17L26.763,34.082L25.658,34.082L26.763,35.836L27.869,34.17L26.763,34.082L25.658,34.082L26.763,35.836L27.869,34.17L26.763,34.082L25.658,34.082L26.763,35.836L27.869,34.17L26.763,34.082L25.658,34.082L26.763,35.836L27.869,34.17L26.763,34.082L25.658,34.082L26.763,35.836L27.869,34.17L26.763,34.082L25.658,34.082L26.763,35.836L27.869,34.17L26.763,34.082L25.658,34.082L26.763,35.836L27.869,34.17L26.763,34.082L25.658,34.082L26.763,35.836L27.869,34.17L26.763,34.082L25.658,34.082L26.763,35.836L27.869,34.17L26.763,34.082L25.658,34.082L26.763,35.836L27.869,34.17L26.763,34.082L25.658,34.082L26.763,35.836L27.869,34.17L26.763,34.082L25.658,34.082L26.763,35.836L27.869,34.17L26.763,34.082L25.658,34.082L26.763,35.836L27.869,34.17L26.763,34.082L25.658,34.082L26.763,35.836L27.869,34.17L26.763,34.082L25.658,34.082L26.763,35.836L27.869,34.17L26.763,34.082L25.658,34.082L26.763,35.836L27.869,34.17L26.763,34.082L25.658,34.082L26.763,35.836L27.869,34.17L26.763,34.082L25.658,34.082L26.763,35.836L27.869,34.17M28.763,34.977L28.763,36.082L28.763,36.91L40.164,29.344L36.571,26.927L26.763,33.436L27.869,34.17M26.763,34.082L27.868,34.082L26.763,33.436L27.869,34.17L28.763,34.977L27.868,34.082L26.763,35.836L27.869,34.17M25.658,34.082L26.763,34.082L27.868,34.082L26.763,33.436L27.869,34.17L28.763,34.977L27.868,34.082L26.763,35.836L27.869,34.17L26.763,34.082" fill-rule="evenodd" fill="#D9D9D9" fill-opacity="0"/>
</svg>
