<svg width="48" height="42" viewBox="0 0 48 42" fill="none" xmlns="http://www.w3.org/2000/svg" xmlns:xlink="http://www.w3.org/1999/xlink">
<path d="M32.201,13.224C34.344,9.785 38.084,4.18 42.078,2.224C45.371,0.612 48.803,2.303 47.833,6.738C47.453,8.476 45.553,10.842 44.226,13.157C41.938,17.146 39.602,22.212 37.698,26.797C36.368,30 35.405,32.68 33.489,34.721C28.788,39.729 21.702,35.289 22.238,23.22C19.604,27.075 18.068,35.509 14.679,39.435C13.421,40.893 10.567,42.508 7.808,41.642C0.471,39.339 -0.837,23.973 0.421,12.555C0.944,7.809 2.318,3.322 5.059,2.124C7.063,1.248 9.885,1.876 11.072,3.127C13.475,5.663 12.828,11.224 12.789,15.464C14.056,13.497 15.775,9.687 17.943,6.738C19.893,4.084 22.422,0.928 24.986,0.319C31.256,-1.171 33.111,5.762 32.201,13.224Z" clip-rule="evenodd" fill-rule="evenodd" fill="#D9D9D9"/>
</svg>
