<svg width="56" height="46" viewBox="0 0 56 46" fill="none" xmlns="http://www.w3.org/2000/svg" xmlns:xlink="http://www.w3.org/1999/xlink">
<path d="M9.471,16.799C12.664,16.799 16.09,18.377 17.829,20.78C19.567,18.377 22.998,16.494 26.19,16.494C31.615,16.494 36.373,20.453 36.373,28.035L36.495,33.149C36.495,41.01 41.679,42.016 43.814,42.016C45.948,42.016 50.938,40.586 50.938,33.877L50.938,19.725C50.938,17.29 54.609,17.29 54.609,19.725L54.609,33.877C54.479,42.721 48.083,45.67 43.814,45.67C39.544,45.67 32.835,43.144 32.835,33.149L32.712,27.74C32.712,21.373 28.261,20.454 26.19,20.454C22.929,20.454 19.669,23.164 19.669,27.74L19.669,43.846C19.669,44.857 18.849,45.67 17.839,45.67L17.823,45.67C16.811,45.67 15.993,44.857 15.993,43.846L15.993,27.74C15.993,23.164 12.731,20.454 9.471,20.454C6.21,20.454 2.948,22.174 2.95,28.934L2.95,43.846C2.95,44.851 2.13,45.67 1.118,45.67C0.109,45.67 -0.712,44.857 -0.712,43.846L-0.712,28.934C-0.712,20.039 4.195,16.799 9.471,16.799ZM43.45,3.991C38.79,3.991 36.093,7.955 36.093,11.614C36.093,14.36 32.437,14.36 32.437,11.614C32.437,5.21 37.264,0.331 43.45,0.331C49.635,0.331 54.464,5.21 54.464,11.614C54.464,14.36 50.796,14.36 50.796,11.614C50.796,7.955 48.11,3.991 43.45,3.991ZM43.802,9.301C45.136,9.301 46.219,10.382 46.219,11.716C46.219,13.052 45.136,14.132 43.802,14.132C42.468,14.132 41.387,13.052 41.387,11.716C41.387,10.382 42.468,9.301 43.802,9.301Z" transform="rotate(0 26.949 23)" fill="#D9D9D9"/>
</svg>
