<svg width="56" height="54" viewBox="0 0 56 54" fill="none" xmlns="http://www.w3.org/2000/svg" xmlns:xlink="http://www.w3.org/1999/xlink">
<path d="M0.437,36.082L27.437,54L54.437,36.082L54.437,17.918L27.437,0L0.437,17.918L0.437,36.082M50.437,30.98L50.437,22.973L44.445,26.95M40.853,24.533L49.012,19.118L29.437,6.128L29.437,16.853M27.437,17.918L25.437,17.918L25.437,16.853L14.022,24.533L17.629,26.927L27.437,20.329L26.321,19.578M27.437,20.329L17.629,26.927L27.437,33.436L37.245,26.927M40.838,29.344L37.245,26.927L27.437,33.436L28.543,34.17L29.437,34.977L28.542,34.082L27.437,35.836L28.543,34.17L27.437,34.082L26.333,34.082L27.437,35.836L28.543,34.17L27.437,34.082L26.333,34.082L27.437,35.836L28.543,34.17L27.437,34.082L26.333,34.082L27.437,35.836L28.543,34.17L27.437,34.082L26.333,34.082L27.437,35.836L28.543,34.17L27.437,34.082L26.333,34.082L27.437,35.836L28.543,34.17L27.437,34.082L26.333,34.082L27.437,35.836L28.543,34.17L27.437,34.082L26.333,34.082L27.437,35.836L28.543,34.17L27.437,34.082L26.333,34.082L27.437,35.836L28.543,34.17L27.437,34.082L26.333,34.082L27.437,35.836L28.543,34.17L27.437,34.082L26.333,34.082L27.437,35.836L28.543,34.17L27.437,34.082L26.333,34.082L27.437,35.836L28.543,34.17L27.437,34.082L26.333,34.082L27.437,35.836L28.543,34.17L27.437,34.082L26.333,34.082L27.437,35.836L28.543,34.17L27.437,34.082L26.333,34.082L27.437,35.836L28.543,34.17L27.437,34.082L26.333,34.082L27.437,35.836L28.543,34.17L27.437,34.082L26.333,34.082L27.437,35.836L28.543,34.17L27.437,34.082L26.333,34.082L27.437,35.836L28.543,34.17L27.437,34.082L26.333,34.082L27.437,35.836L28.543,34.17L27.437,34.082L26.333,34.082L27.437,35.836L28.543,34.17L27.437,34.082L26.333,34.082L27.437,35.836L28.543,34.17L27.437,34.082L26.333,34.082L27.437,35.836L28.543,34.17L27.437,34.082L26.333,34.082L27.437,35.836L28.543,34.17L27.437,34.082L26.333,34.082L27.437,35.836L28.543,34.17L27.437,34.082L26.333,34.082M40.838,29.344L29.437,36.91L29.437,47.872L49.041,34.862M25.437,16.853L25.437,6.128L5.863,19.118L14.022,24.533M10.429,26.95L4.437,22.973L4.437,30.98M5.833,34.862L25.437,47.872L25.437,36.91L14.037,29.344M27.437,33.436L28.543,34.17L29.437,34.977L28.542,34.082L27.437,35.836L28.543,34.17L27.437,34.082L26.333,34.082L27.437,35.836L28.543,34.17L27.437,34.082L26.333,34.082L27.437,35.836L28.543,34.17L27.437,34.082L26.333,34.082L27.437,35.836L28.543,34.17L27.437,34.082L26.333,34.082L27.437,35.836L28.543,34.17L27.437,34.082L26.333,34.082L27.437,35.836L28.543,34.17L27.437,34.082L26.333,34.082L27.437,35.836L28.543,34.17L27.437,34.082L26.333,34.082L27.437,35.836L28.543,34.17L27.437,34.082L26.333,34.082L27.437,35.836L28.543,34.17L27.437,34.082L26.333,34.082L27.437,35.836L28.543,34.17L27.437,34.082L26.333,34.082L27.437,35.836L28.543,34.17L27.437,34.082L26.333,34.082L27.437,35.836L28.543,34.17L27.437,34.082L26.333,34.082L27.437,35.836L28.543,34.17L27.437,34.082L26.333,34.082L27.437,35.836L28.543,34.17L27.437,34.082L26.333,34.082L27.437,35.836L28.543,34.17L27.437,34.082L26.333,34.082L27.437,35.836L28.543,34.17L27.437,34.082L26.333,34.082L27.437,35.836L28.543,34.17L27.437,34.082L26.333,34.082L27.437,35.836L28.543,34.17L27.437,34.082L26.333,34.082L27.437,35.836L28.543,34.17L27.437,34.082L26.333,34.082L27.437,35.836L28.543,34.17L27.437,34.082L26.333,34.082L27.437,35.836L28.543,34.17L27.437,34.082L26.333,34.082L27.437,35.836L28.543,34.17L27.437,34.082L26.333,34.082L27.437,35.836L28.543,34.17L27.437,34.082L26.333,34.082L27.437,35.836L28.543,34.17L27.437,34.082L26.333,34.082L27.437,35.836L28.543,34.17M29.437,36.082L29.437,36.91L40.838,29.344L37.245,26.927L27.437,33.436L28.543,34.17L29.437,34.977L28.542,34.082L27.437,35.836L28.543,34.17L27.437,34.082L26.333,34.082L27.437,35.836L28.543,34.17L27.437,34.082L26.333,34.082L27.437,35.836L28.543,34.17L27.437,34.082L26.333,34.082L27.437,35.836L28.543,34.17L27.437,34.082L26.333,34.082L27.437,35.836L28.543,34.17L27.437,34.082L26.333,34.082L27.437,35.836L28.543,34.17L27.437,34.082L26.333,34.082L27.437,35.836L28.543,34.17L27.437,34.082L26.333,34.082L27.437,35.836L28.543,34.17L27.437,34.082L26.333,34.082L27.437,35.836L28.543,34.17L27.437,34.082L26.333,34.082L27.437,35.836L28.543,34.17L27.437,34.082L26.333,34.082L27.437,35.836L28.543,34.17L27.437,34.082L26.333,34.082L27.437,35.836L28.543,34.17L27.437,34.082L26.333,34.082L27.437,35.836L28.543,34.17L27.437,34.082L26.333,34.082L27.437,35.836L28.543,34.17L27.437,34.082L26.333,34.082L27.437,35.836L28.543,34.17L27.437,34.082L26.333,34.082L27.437,35.836L28.543,34.17L27.437,34.082L26.333,34.082L27.437,35.836L28.543,34.17L27.437,34.082L26.333,34.082L27.437,35.836L28.543,34.17L27.437,34.082L26.333,34.082L27.437,35.836L28.543,34.17L27.437,34.082L26.333,34.082L27.437,35.836L28.543,34.17L27.437,34.082L26.333,34.082L27.437,35.836L28.543,34.17L27.437,34.082L26.333,34.082L27.437,35.836L28.543,34.17L27.437,34.082L26.333,34.082L27.437,35.836L28.543,34.17L27.437,34.082L26.333,34.082L27.437,35.836L28.543,34.17M29.437,34.977L29.437,36.082L29.437,36.91L40.838,29.344L37.245,26.927L27.437,33.436L28.543,34.17M27.437,34.082L28.542,34.082L27.437,33.436L28.543,34.17L29.437,34.977L28.542,34.082L27.437,35.836L28.543,34.17M26.333,34.082L27.437,34.082L28.542,34.082L27.437,33.436L28.543,34.17L29.437,34.977L28.542,34.082L27.437,35.836L28.543,34.17L27.437,34.082" fill-rule="evenodd" fill="#D9D9D9" fill-opacity="0"/>
</svg>
