<svg width="62" height="28" viewBox="0 0 62 28" fill="none" xmlns="http://www.w3.org/2000/svg" xmlns:xlink="http://www.w3.org/1999/xlink">
<path d="M2.121,24.986C2.25,24.986 2.358,24.881 2.377,24.735L3.065,19.306L2.377,13.755C2.356,13.607 2.25,13.506 2.121,13.506C1.989,13.506 1.88,13.61 1.865,13.756L1.255,19.306L1.865,24.734C1.882,24.881 1.989,24.986 2.121,24.986ZM-0.165,22.922C-0.039,22.922 0.064,22.822 0.083,22.682L0.618,19.306L0.083,15.872C0.064,15.729 -0.038,15.631 -0.165,15.631C-0.293,15.631 -0.396,15.731 -0.414,15.873L-0.867,19.308L-0.414,22.682C-0.396,22.824 -0.293,22.922 -0.165,22.922ZM4.858,12.721C4.839,12.546 4.71,12.419 4.549,12.419C4.386,12.419 4.253,12.546 4.238,12.721C4.238,12.723 3.661,19.308 3.661,19.308L4.238,25.652C4.253,25.831 4.386,25.956 4.549,25.956C4.71,25.956 4.839,25.831 4.858,25.654L5.515,19.308L4.858,12.721ZM6.997,26.21C7.186,26.21 7.342,26.059 7.359,25.856L7.978,19.311L7.359,12.541C7.342,12.34 7.186,12.185 6.997,12.185C6.805,12.185 6.65,12.338 6.635,12.542L6.091,19.311L6.635,25.856C6.65,26.059 6.805,26.21 6.997,26.21ZM9.465,26.318C9.686,26.318 9.865,26.143 9.882,25.91L9.88,25.911L10.466,19.311L9.88,13.03C9.865,12.8 9.686,12.623 9.465,12.623C9.243,12.623 9.066,12.8 9.051,13.033L8.537,19.311L9.051,25.911C9.064,26.143 9.243,26.318 9.465,26.318ZM12.967,19.313L12.423,9.098C12.408,8.839 12.203,8.634 11.956,8.634C11.705,8.634 11.499,8.839 11.489,9.098L11.006,19.313L11.489,25.913C11.501,26.171 11.707,26.375 11.956,26.375C12.205,26.375 12.409,26.172 12.423,25.911L12.423,25.915L12.967,19.313ZM14.461,26.385C14.739,26.385 14.969,26.159 14.983,25.87L14.983,25.875L15.493,19.314L14.983,6.763C14.969,6.474 14.739,6.248 14.461,6.248C14.181,6.248 13.953,6.474 13.941,6.763C13.941,6.764 13.488,19.314 13.488,19.314L13.941,25.872C13.953,26.159 14.181,26.385 14.461,26.385ZM16.989,5.149C16.676,5.149 16.425,5.399 16.415,5.719L15.994,19.314L16.415,25.807C16.425,26.123 16.676,26.373 16.989,26.373C17.298,26.373 17.548,26.123 17.562,25.803L17.562,25.808L18.034,19.314L17.562,5.719C17.55,5.399 17.298,5.149 16.989,5.149ZM19.537,26.385C19.877,26.385 20.153,26.114 20.163,25.764L20.163,25.767L20.601,19.316L20.163,5.26C20.153,4.91 19.877,4.637 19.537,4.637C19.195,4.637 18.92,4.91 18.912,5.26L18.52,19.316L18.912,25.767C18.919,26.114 19.195,26.385 19.537,26.385ZM22.105,26.378C22.475,26.378 22.775,26.083 22.784,25.702L22.784,25.709L23.187,19.314L22.784,5.618C22.775,5.24 22.475,4.943 22.105,4.943C21.733,4.943 21.432,5.24 21.425,5.619L21.068,19.314L21.425,25.705C21.432,26.083 21.733,26.378 22.105,26.378ZM25.792,19.318L25.423,6.121C25.414,5.712 25.093,5.393 24.691,5.393C24.29,5.393 23.967,5.714 23.958,6.121L23.634,19.318L23.958,25.668C23.967,26.071 24.288,26.392 24.691,26.392C25.091,26.392 25.414,26.071 25.423,25.664L25.423,25.668L25.792,19.318ZM27.301,26.404C27.724,26.404 28.077,26.054 28.082,25.623L28.082,25.628L28.414,19.32L28.082,3.615C28.077,3.184 27.724,2.832 27.301,2.832C26.874,2.832 26.522,3.184 26.517,3.615L26.219,19.314C26.219,19.326 26.517,25.628 26.517,25.628C26.522,26.054 26.874,26.404 27.301,26.404ZM29.897,1.359C29.439,1.359 29.065,1.734 29.06,2.194L28.716,19.321L29.06,25.537C29.065,25.992 29.441,26.365 29.897,26.365C30.351,26.365 30.727,25.99 30.732,25.532L30.732,25.537L31.104,19.321L30.732,2.192C30.727,1.732 30.351,1.359 29.897,1.359ZM32.272,26.409C32.291,26.411 53.21,26.423 53.345,26.423C57.544,26.423 60.949,23.018 60.949,18.818C60.949,14.618 57.545,11.215 53.345,11.215C52.305,11.215 51.311,11.426 50.406,11.804C49.801,4.951 44.055,-0.423 37.046,-0.423C35.33,-0.423 33.659,-0.085 32.183,0.485C31.608,0.708 31.457,0.937 31.451,1.38L31.451,25.511C31.457,25.977 31.815,26.363 32.272,26.409Z" clip-rule="evenodd" fill-rule="evenodd" fill="#D9D9D9"/>
</svg>
