<svg width="56" height="50" viewBox="0 0 56 50" fill="none" xmlns="http://www.w3.org/2000/svg" xmlns:xlink="http://www.w3.org/1999/xlink">
<path d="M6.895,0.714C4.51,2.13 -0.188,7.527 -0.233,8.943L-0.233,11.286C-0.233,14.256 2.544,16.866 5.064,16.866C8.091,16.866 10.612,14.358 10.613,11.381C10.613,14.358 13.048,16.866 16.075,16.866C19.102,16.866 21.459,14.358 21.459,11.381C21.459,14.358 24.048,16.866 27.075,16.866L27.13,16.866C30.157,16.866 32.746,14.358 32.746,11.381C32.746,14.358 35.103,16.866 38.13,16.866C41.157,16.866 43.592,14.358 43.592,11.381C43.592,14.358 46.114,16.866 49.14,16.866C51.661,16.866 54.437,14.256 54.437,11.286L54.437,8.943C54.393,7.527 49.694,2.129 47.31,0.714C39.898,0.454 34.76,0.409 27.102,0.41C19.444,0.411 9.004,0.53 6.894,0.714L6.895,0.714ZM21.42,15.467C21.131,15.972 20.772,16.433 20.355,16.839C19.213,17.956 17.647,18.648 15.92,18.648C14.259,18.65 12.663,17.999 11.476,16.838C11.062,16.432 10.747,15.999 10.459,15.494L10.458,15.495C10.17,16 9.769,16.434 9.354,16.84C8.167,18 6.57,18.651 4.909,18.649C4.701,18.649 4.485,18.592 4.31,18.531C4.066,21.065 3.964,23.487 3.927,25.252L3.927,25.262C3.922,26.159 3.918,26.896 3.914,27.92C3.96,33.236 3.387,45.151 6.257,48.078C10.705,49.115 18.89,49.587 27.102,49.59L27.103,49.59C35.314,49.587 43.499,49.115 47.947,48.078C50.818,45.15 50.244,33.236 50.291,27.92C50.286,26.896 50.282,26.159 50.278,25.262L50.277,25.252C50.241,23.486 50.138,21.065 49.895,18.531C49.72,18.591 49.504,18.649 49.295,18.649C47.635,18.65 46.038,18 44.851,16.839C44.436,16.433 44.035,16 43.747,15.494L43.745,15.494C43.457,15.998 43.143,16.432 42.729,16.837C41.542,17.999 39.945,18.649 38.284,18.648C36.558,18.648 34.992,17.955 33.849,16.838C33.432,16.433 33.074,15.971 32.784,15.467C32.498,15.97 32.143,16.432 31.729,16.838C30.542,17.999 28.945,18.649 27.284,18.648C27.224,18.648 27.164,18.645 27.104,18.643L27.102,18.643C27.042,18.645 26.982,18.648 26.921,18.648C25.26,18.649 23.663,17.999 22.476,16.838C22.063,16.432 21.707,15.971 21.421,15.467L21.42,15.467ZM16.856,21.37L16.856,21.372L16.859,21.372C18.666,21.375 20.272,21.372 22.262,23.543C23.828,23.379 25.464,23.297 27.102,23.299L27.103,23.299C28.741,23.297 30.377,23.379 31.943,23.543C33.933,21.371 35.538,21.375 37.346,21.372L37.349,21.372L37.349,21.37C38.203,21.37 41.619,21.37 43.999,28.055L46.556,37.227C48.451,44.05 45.95,44.217 42.829,44.223C38.202,44.051 35.64,40.69 35.64,37.33C33.079,37.75 30.091,37.96 27.103,37.96L27.101,37.96C24.113,37.96 21.125,37.75 18.564,37.33C18.564,40.69 16.002,44.051 11.375,44.223C8.255,44.217 5.753,44.05 7.648,37.227L10.206,28.055C12.586,21.37 16.002,21.37 16.856,21.37L16.856,21.37ZM27.102,26.624L27.102,26.625C27.097,26.629 22.23,31.099 21.355,32.689L24.543,32.561L24.543,35.34C24.543,35.47 25.821,35.417 27.102,35.358L27.103,35.358C28.383,35.417 29.662,35.47 29.662,35.34L29.662,32.561L32.849,32.689C31.974,31.099 27.103,26.625 27.103,26.625L27.103,26.624L27.102,26.624L27.102,26.624Z" fill="#D9D9D9"/>
</svg>
