<svg width="56" height="46" viewBox="0 0 56 46" fill="none" xmlns="http://www.w3.org/2000/svg" xmlns:xlink="http://www.w3.org/1999/xlink">
<path d="M55.133,5.823C53.097,6.728 50.906,7.337 48.607,7.612C50.954,6.205 52.755,3.979 53.603,1.326C51.41,2.63 48.975,3.573 46.389,4.084C44.316,1.876 41.36,0.496 38.095,0.496C31.82,0.496 26.733,5.583 26.733,11.858C26.733,12.747 26.834,13.615 27.028,14.447C17.584,13.975 9.212,9.45 3.608,2.576C2.63,4.254 2.07,6.205 2.07,8.287C2.07,12.229 4.073,15.706 7.125,17.744C5.26,17.685 3.51,17.174 1.976,16.323L1.976,16.465C1.976,21.972 5.895,26.563 11.09,27.609C10.137,27.868 9.133,28.008 8.098,28.008C7.365,28.008 6.652,27.936 5.958,27.803C7.403,32.317 11.601,35.602 16.572,35.695C12.685,38.741 7.786,40.559 2.462,40.559C1.542,40.559 0.638,40.505 -0.25,40.398C4.778,43.621 10.75,45.504 17.167,45.504C38.065,45.504 49.494,28.191 49.494,13.177C49.494,12.685 49.484,12.194 49.46,11.708C51.683,10.102 53.61,8.101 55.133,5.823Z" clip-rule="evenodd" fill-rule="evenodd" fill="#D9D9D9"/>
</svg>
