<svg width="62" height="28" viewBox="0 0 62 28" fill="none" xmlns="http://www.w3.org/2000/svg" xmlns:xlink="http://www.w3.org/1999/xlink">
<path d="M2.988,24.986C3.116,24.986 3.225,24.881 3.244,24.735L3.932,19.306L3.244,13.755C3.223,13.607 3.116,13.506 2.988,13.506C2.855,13.506 2.747,13.61 2.732,13.756L2.122,19.306L2.732,24.734C2.749,24.881 2.855,24.986 2.988,24.986ZM0.702,22.922C0.828,22.922 0.931,22.822 0.95,22.682L1.485,19.306L0.95,15.872C0.931,15.729 0.829,15.631 0.702,15.631C0.573,15.631 0.47,15.731 0.453,15.873L0,19.308L0.453,22.682C0.47,22.824 0.573,22.922 0.702,22.922ZM5.725,12.721C5.706,12.546 5.577,12.419 5.416,12.419C5.253,12.419 5.12,12.546 5.105,12.721C5.105,12.723 4.528,19.308 4.528,19.308L5.105,25.652C5.12,25.831 5.253,25.956 5.416,25.956C5.577,25.956 5.706,25.831 5.725,25.654L6.382,19.308L5.725,12.721ZM7.864,26.21C8.053,26.21 8.209,26.059 8.226,25.856L8.845,19.311L8.226,12.541C8.209,12.34 8.053,12.185 7.864,12.185C7.672,12.185 7.517,12.338 7.502,12.542L6.957,19.311L7.502,25.856C7.517,26.059 7.672,26.21 7.864,26.21ZM10.332,26.318C10.553,26.318 10.732,26.143 10.749,25.91L10.747,25.911L11.333,19.311L10.747,13.03C10.732,12.8 10.553,12.623 10.332,12.623C10.11,12.623 9.933,12.8 9.918,13.033L9.404,19.311L9.918,25.911C9.931,26.143 10.11,26.318 10.332,26.318ZM13.834,19.313L13.29,9.098C13.275,8.839 13.07,8.634 12.823,8.634C12.572,8.634 12.366,8.839 12.356,9.098L11.873,19.313L12.356,25.913C12.368,26.171 12.574,26.375 12.823,26.375C13.072,26.375 13.276,26.172 13.29,25.911L13.29,25.915L13.834,19.313ZM15.328,26.385C15.606,26.385 15.836,26.159 15.85,25.87L15.85,25.875L16.36,19.314L15.85,6.763C15.836,6.474 15.606,6.248 15.328,6.248C15.048,6.248 14.82,6.474 14.808,6.763C14.808,6.764 14.355,19.314 14.355,19.314L14.808,25.872C14.82,26.159 15.048,26.385 15.328,26.385ZM17.856,5.149C17.543,5.149 17.292,5.399 17.282,5.719L16.861,19.314L17.282,25.807C17.292,26.123 17.543,26.373 17.856,26.373C18.165,26.373 18.415,26.123 18.429,25.803L18.429,25.808L18.901,19.314L18.429,5.719C18.417,5.399 18.165,5.149 17.856,5.149ZM20.404,26.385C20.744,26.385 21.02,26.114 21.03,25.764L21.03,25.767L21.468,19.316L21.03,5.26C21.02,4.91 20.744,4.637 20.404,4.637C20.062,4.637 19.787,4.91 19.779,5.26L19.387,19.316L19.779,25.767C19.786,26.114 20.062,26.385 20.404,26.385ZM22.972,26.378C23.342,26.378 23.642,26.083 23.651,25.702L23.651,25.709L24.054,19.314L23.651,5.618C23.642,5.24 23.342,4.943 22.972,4.943C22.6,4.943 22.299,5.24 22.292,5.619L21.935,19.314L22.292,25.705C22.299,26.083 22.6,26.378 22.972,26.378ZM26.659,19.318L26.29,6.121C26.281,5.712 25.96,5.393 25.558,5.393C25.157,5.393 24.834,5.714 24.825,6.121L24.501,19.318L24.825,25.668C24.834,26.071 25.155,26.392 25.558,26.392C25.958,26.392 26.281,26.071 26.29,25.664L26.29,25.668L26.659,19.318ZM28.168,26.404C28.591,26.404 28.944,26.054 28.949,25.623L28.949,25.628L29.281,19.32L28.949,3.615C28.944,3.184 28.591,2.832 28.168,2.832C27.741,2.832 27.389,3.184 27.384,3.615L27.086,19.314C27.086,19.326 27.384,25.628 27.384,25.628C27.389,26.054 27.741,26.404 28.168,26.404ZM30.764,1.359C30.306,1.359 29.932,1.734 29.927,2.194L29.583,19.321L29.927,25.537C29.932,25.992 30.308,26.365 30.764,26.365C31.218,26.365 31.594,25.99 31.599,25.532L31.599,25.537L31.971,19.321L31.599,2.192C31.594,1.732 31.218,1.359 30.764,1.359ZM33.139,26.409C33.158,26.411 54.077,26.423 54.212,26.423C58.411,26.423 61.816,23.018 61.816,18.818C61.816,14.618 58.412,11.215 54.212,11.215C53.172,11.215 52.178,11.426 51.273,11.804C50.668,4.951 44.922,-0.423 37.913,-0.423C36.197,-0.423 34.526,-0.085 33.05,0.485C32.475,0.708 32.324,0.937 32.318,1.38L32.318,25.511C32.324,25.977 32.682,26.363 33.139,26.409Z" clip-rule="evenodd" fill-rule="evenodd" fill="#D9D9D9"/>
</svg>
