<svg width="32" height="36" viewBox="0 0 32 36" fill="none" xmlns="http://www.w3.org/2000/svg" xmlns:xlink="http://www.w3.org/1999/xlink">
<path d="M-0.197,12.222C-0.197,8.083 -0.334,4.554 -0.47,1.636L8.488,1.636L8.964,6.182L9.168,6.182C10.525,4.078 13.918,0.891 19.414,0.891C26.199,0.891 31.288,5.37 31.288,15.138L31.288,34.821L20.975,34.821L20.975,16.43C20.975,12.153 19.483,9.237 15.751,9.237C12.9,9.237 11.205,11.204 10.527,13.103C10.255,13.783 10.12,14.731 10.12,15.684L10.12,34.821L-0.193,34.821L-0.193,12.222L-0.197,12.222Z" clip-rule="evenodd" fill-rule="evenodd" transform="rotate(0 15.409 17.856)" fill="#D9D9D9"/>
</svg>
