<svg width="44" height="54" viewBox="0 0 44 54" fill="none" xmlns="http://www.w3.org/2000/svg" xmlns:xlink="http://www.w3.org/1999/xlink">
<path d="M22.605,0C7.868,0 0.437,10.566 0.437,19.377C0.437,24.711 2.457,29.458 6.789,31.225C7.5,31.515 8.136,31.235 8.342,30.449C8.485,29.904 8.824,28.53 8.975,27.958C9.182,27.18 9.101,26.908 8.527,26.23C7.279,24.756 6.48,22.85 6.48,20.148C6.48,12.307 12.346,5.291 21.753,5.291C30.083,5.291 34.659,10.382 34.659,17.178C34.659,26.122 30.7,33.67 24.826,33.67C21.581,33.67 19.152,30.985 19.93,27.695C20.862,23.766 22.669,19.523 22.669,16.688C22.669,14.15 21.306,12.032 18.486,12.032C15.168,12.032 12.503,15.463 12.503,20.06C12.503,22.988 13.492,24.969 13.492,24.969C13.492,24.969 10.097,39.352 9.503,41.872C8.318,46.889 9.326,53.038 9.41,53.659C9.461,54.027 9.933,54.115 10.147,53.835C10.453,53.437 14.403,48.558 15.747,43.684C16.126,42.305 17.929,35.159 17.929,35.159C19.005,37.214 22.156,39.025 25.506,39.025C35.478,39.025 42.241,29.934 42.241,17.765C42.241,8.568 34.45,0 22.605,0Z" clip-rule="evenodd" fill-rule="evenodd" fill="#D9D9D9"/>
</svg>
