<svg width="42" height="54" viewBox="0 0 42 54" fill="none" xmlns="http://www.w3.org/2000/svg" xmlns:xlink="http://www.w3.org/1999/xlink">
<path d="M21.931,0C7.193,0 -0.237,10.566 -0.237,19.377C-0.237,24.711 1.783,29.458 6.115,31.225C6.825,31.515 7.462,31.235 7.668,30.449C7.811,29.904 8.15,28.53 8.3,27.958C8.508,27.18 8.427,26.908 7.853,26.23C6.604,24.756 5.806,22.85 5.806,20.148C5.806,12.307 11.672,5.291 21.079,5.291C29.408,5.291 33.985,10.382 33.985,17.178C33.985,26.122 30.026,33.67 24.152,33.67C20.906,33.67 18.478,30.985 19.256,27.695C20.188,23.766 21.995,19.523 21.995,16.688C21.995,14.15 20.631,12.032 17.812,12.032C14.494,12.032 11.829,15.463 11.829,20.06C11.829,22.988 12.818,24.969 12.818,24.969C12.818,24.969 9.423,39.352 8.829,41.872C7.644,46.889 8.651,53.038 8.736,53.659C8.786,54.027 9.259,54.115 9.473,53.835C9.779,53.437 13.729,48.558 15.073,43.684C15.452,42.305 17.255,35.159 17.255,35.159C18.331,37.214 21.482,39.025 24.832,39.025C34.803,39.025 41.567,29.934 41.567,17.765C41.567,8.568 33.776,0 21.931,0Z" clip-rule="evenodd" fill-rule="evenodd" fill="#D9D9D9"/>
</svg>
