<svg width="56" height="46" viewBox="0 0 56 46" fill="none" xmlns="http://www.w3.org/2000/svg" xmlns:xlink="http://www.w3.org/1999/xlink">
<path d="M10.338,16.799C13.53,16.799 16.957,18.377 18.696,20.78C20.434,18.377 23.865,16.494 27.057,16.494C32.481,16.494 37.24,20.453 37.24,28.035L37.362,33.149C37.362,41.01 42.546,42.016 44.68,42.016C46.815,42.016 51.805,40.586 51.805,33.877L51.805,19.725C51.805,17.29 55.476,17.29 55.476,19.725L55.476,33.877C55.346,42.721 48.95,45.67 44.68,45.67C40.411,45.67 33.702,43.144 33.702,33.149L33.578,27.74C33.578,21.373 29.128,20.454 27.057,20.454C23.796,20.454 20.536,23.164 20.536,27.74L20.536,43.846C20.536,44.857 19.716,45.67 18.706,45.67L18.689,45.67C17.678,45.67 16.859,44.857 16.859,43.846L16.859,27.74C16.859,23.164 13.598,20.454 10.338,20.454C7.077,20.454 3.815,22.174 3.817,28.934L3.817,43.846C3.817,44.851 2.997,45.67 1.985,45.67C0.976,45.67 0.155,44.857 0.155,43.846L0.155,28.934C0.155,20.039 5.062,16.799 10.338,16.799ZM44.316,3.991C39.657,3.991 36.96,7.955 36.96,11.614C36.96,14.36 33.303,14.36 33.303,11.614C33.303,5.21 38.131,0.331 44.316,0.331C50.502,0.331 55.331,5.21 55.331,11.614C55.331,14.36 51.663,14.36 51.663,11.614C51.663,7.955 48.976,3.991 44.316,3.991ZM44.669,9.301C46.003,9.301 47.085,10.382 47.085,11.716C47.085,13.052 46.003,14.132 44.669,14.132C43.335,14.132 42.254,13.052 42.254,11.716C42.254,10.382 43.335,9.301 44.669,9.301Z" transform="rotate(0 27.816 23)" fill="#D9D9D9"/>
</svg>
